<?xml version="1.0" encoding="utf-8"?>
<!-- Svg Vector Icons : http://www.onlinewebfonts.com/icon -->
<!DOCTYPE svg PUBLIC "-//W3C//DTD SVG 1.1//EN" "http://www.w3.org/Graphics/SVG/1.1/DTD/svg11.dtd">
<svg version="1.1" xmlns="http://www.w3.org/2000/svg" xmlns:xlink="http://www.w3.org/1999/xlink" x="0px" y="0px" viewBox="0 0 1000 1000" enable-background="new 0 0 1000 1000" xml:space="preserve">
<metadata> Svg Vector Icons : http://www.onlinewebfonts.com/icon </metadata>
<g><path d="M990,745c0,21.5-6,41.5-15.7,59L664.9,457.7L971,189.9c11.9,18.9,19,41,19,65.1V745L990,745z M500.1,520.6L926,147.9c-17.5-9.6-37.2-15.5-58.4-15.5H132.4c-21.2,0-40.9,5.9-58.4,15.5L500.1,520.6L500.1,520.6z M618.8,498l-98.6,86.3c-5.7,5.1-13,7.5-20.1,7.5c-7.3,0-14.4-2.5-20.1-7.5L381.3,498L68,848.7c18.7,11.8,40.8,18.9,64.6,18.9h735.1c23.8,0,45.8-7.1,64.6-18.9L618.8,498L618.8,498z M29,189.9c-11.9,18.9-19,41-19,65.1v490.1c0,21.5,6,41.5,15.7,59l309.5-346.4L29,189.9L29,189.9z"/></g>
</svg>